# ProBuilder 4.5.2
# https://unity3d.com/unity/features/worldbuilding/probuilder
# 07/11/2023 19:20:56

mtllib ./Prorotype.mtl
o Prorotype

g Cube (1)
v 0 0 -100
v -100 0 -100
v 0 0 -19.5
v -100 0 -19.5
v -100 25.5 -50
v -100 25.5 -100
v -50 25.5 -100
v -50 25.5 -50
v -100 1 -100
v -50 1 -100
v -100 1 -50
v 0 0 21.5
v -100 0 21.5
v -100 1 -19.5
v -100 1 -36.25
v -100 1 -33.75
v -50 1 -50
v -100 4 -36.25
v -100 4 -33.75
v -51.12357 1 -36.21428
v -51.12357 4 -36.21428
v -50.68537 1 -36.1319
v -50.68537 4 -36.1319
v -50.05011 4 -34.75
v -50.05011 1 -34.75
v -50.13162 1 -34.31172
v -50.13162 4 -34.31172
v -51.12357 1 -33.67922
v -51.12357 4 -33.67922
v -50.68509 4 -33.75964
v -50.68509 1 -33.75964
v -50.37936 1 -33.98903
v -50.37936 4 -33.98903
v -50.05011 1 -35.13812
v -50.05011 4 -35.13812
v -50.13138 4 -35.57652
v -50.13138 1 -35.57652
v -50.36862 1 -36
v -50.36862 4 -36
v -50.25 1 -35.78826
v -50.25 4 -35.78826
v -42.25 1 -100
v -44.75 1 -100
v -42.25 4 -100
v -44.75 4 -100
v -43.7331 1 -62.50001
v -43.25 1 -62.5
v -43.25 4 -62.5
v -43.7331 4 -62.50001
v -44.75 4 -63.74999
v -44.75 1 -63.74999
v -44.73244 4 -63.5
v -44.73244 1 -63.5
v -44.52088 1 -62.77088
v -44.52088 4 -62.77088
v -44.67003 1 -62.98805
v -44.67003 4 -62.98805
v -43.98817 1 -62.5
v -43.98817 4 -62.5
v -44.26195 4 -62.57997
v -44.26195 1 -62.57997
v -42.25 1 -63.5
v -42.25 4 -63.5
v -42.24999 1.000004 -63.24676
v -42.25 4.008869 -63.24676
v -43 4 -62.52404
v -43 1 -62.52405
v -42.32997 4 -62.98805
v -42.32996 1 -62.98805
v -42.47295 1 -62.77741
v -42.47912 4 -62.77088
v -42.59565 3.999996 -62.64573
v -42.75 4 -62.57177
v -42.59257 0.9999962 -62.64899
v -42.75 1 -62.57177
v 0 1 21.5
v 0 0.9999886 -0.2499943
v -1.144409E-05 63.74998 -0.250021
v -1.144409E-05 63.75 21.49997
v -49.5 1.000008 21.5
v -49.5 0.9999962 -0.2499943
v -49.50001 63.75001 21.49997
v -49.50001 63.75 -0.250021
v -18.00001 63.74999 -0.2500229
v -17.99999 0.9999924 -0.2499962
v -17.99999 1.000004 21.5
v -18.00001 63.75 21.49997
v -18 43 14.47705
v -18 43 6.522945
v -33.99999 43 14.47705
v -33.99999 43 6.522945
v -18 50.94673 14.47705
v -33.99999 50.94673 14.47705
v -18 50.94673 6.522941
v -33.99999 50.94673 6.522941
v -18.00001 63.74999 6.5
v -18.00001 63.75 14.25
v -34.00001 63.75 -0.2500229
v -34.00001 63.75002 21.49997
v -33.99999 1 -0.2499962
v -33.99999 1.000011 21.5
v 0 1 -79.0209
v 0 1 -100
v 0 1 -27.125
v 0 1 -42.375
v 0 1 -50
v 0 1 -69.9791
v -16 1 -100
v -22 1 -100
v -36 1 -100
v -22 0 -50
v -36 0 -50
v -36 0 -69.9791
v -22 0 -69.9791
v -36 0 -100
v -22 0 -100
v -22 0 -79.0209
v -36 0 -79.0209
v -16 0 -100
v 0 0 -79.0209
v -16 0 -79
v 0 0 -69.9791
v 0 0 -50
v -16 0 -50
v -16 0 -69.9791
v -36 1 -79.0209
v -36 1 -69.9791
v -36 1 -50
v -100 1 21.5
v -55.5 1.000008 21.5
v -55.5 1.000008 -0.25
v -22 1 -50
v -16 1 -50
v -55.5 1.000004 -19.5
v -22 1 -69.9791
v -22 1 -79.0209
v -16 1 -69.9791
v -16 1 -79

vt 0 -100
vt -100 -100
vt 0 -19.5
vt -100 -19.5
vt 100 -50
vt 100 -100
vt 50 -100
vt 50 -50
vt 100 1
vt 50 1
vt 100 25.5
vt 50 25.5
vt -50 1
vt -100 1
vt -50 25.5
vt -100 25.5
vt 0 21.5
vt -100 21.5
vt -19.5 1
vt -19.5 0
vt -100 0
vt -36.25 1
vt -33.75 1
vt -36.25 4
vt -33.75 4
vt 56.93406 1
vt 56.93406 4
vt 56.48818 1
vt 56.48818 4
vt 25.0126 4
vt 25.0126 1
vt 24.5668 1
vt 24.5668 4
vt -44.20977 1
vt -44.20977 4
vt -43.76397 4
vt -43.76397 1
vt -11.52821 1
vt -11.93127 1
vt -11.93127 4
vt -11.52821 4
vt -11.90824 1
vt -12.28692 1
vt -12.28692 4
vt -11.90824 4
vt 43.67276 1
vt 43.67276 4
vt 44.11864 4
vt 44.11864 1
vt 60.33741 1
vt 60.33741 4
vt 60.68052 4
vt 60.68052 1
vt 34.75 4
vt 34.75 1
vt 35.13812 1
vt 35.13812 4
vt 55.5393 4
vt 55.5393 1
vt 55.782 1
vt 55.782 4
vt 56.02507 1
vt 56.02507 4
vt 55.78236 4
vt 55.78236 1
vt 42.25 1
vt 44.75 1
vt 42.25 4
vt 44.75 4
vt -43.92598 1
vt -43.07402 1
vt -43.07402 4
vt -43.92598 4
vt -66.72815 4
vt -66.72815 1
vt -66.47755 4
vt -66.47755 1
vt -76.94763 1
vt -76.94763 4
vt -77.21109 1
vt -77.21109 4
vt -43.73124 1
vt -43.73124 4
vt -43.98631 1
vt -43.98631 4
vt -72.76295 4
vt -72.76295 1
vt 63.50127 1
vt 63.50127 4
vt 63.24803 1.000004
vt 63.24803 4.008869
vt -37.06895 4
vt -37.06895 1
vt -36.8178 4
vt -36.81779 1
vt 47.94778 1.000147
vt 47.94778 4.009013
vt 47.67699 4.000144
vt 47.67699 1.000143
vt 27.70391 1.000148
vt 27.69503 4.000148
vt 27.95848 4.000148
vt 27.95848 1.000148
vt 42.32744 -62.988
vt 42.47659 -62.77083
vt 42.59312 -62.64568
vt 42.74747 -62.57172
vt 42.99747 -62.52399
vt 43.24747 -62.49995
vt 44.74747 -99.99995
vt 42.24747 -99.99995
vt 42.24747 -63.49995
vt 42.24746 -63.2467
vt 3.296701 3.980653
vt 3.128536 3.980657
vt 3.30555 0.9806526
vt 3.132961 0.980657
vt 2.96052 0.9806526
vt 2.960517 3.980653
vt -30.25946 1.000017
vt -30.51398 1.000017
vt -30.51398 4.000017
vt -30.25947 4.000017
vt 44.51835 -62.77083
vt 44.25942 -62.57992
vt 43.98564 -62.49995
vt 43.73057 -62.49995
vt 44.74747 -63.74994
vt 44.72991 -63.49995
vt 44.6675 -62.988
vt -68.4469 4
vt -68.4469 1
vt -67.93116 1
vt -67.93116 4
vt -73.08465 4
vt -73.08465 1
vt -59.74785 1
vt -59.74785 4
vt -60.03307 4
vt -60.03307 1
vt -100 4
vt -63.74999 1
vt -63.74999 4
vt 100 4
vt 63.5 4
vt 63.5 1
vt 100.0265 1
vt 100.0265 4
vt 51.15002 4
vt 51.15002 1
vt 100 -33.75
vt 51.12357 -33.67922
vt 50.68509 -33.75964
vt 50.37936 -33.98903
vt 50.13162 -34.31172
vt 50.05011 -34.75
vt 50.05011 -35.13812
vt 50.13138 -35.57652
vt 50.25 -35.78826
vt 50.36862 -36
vt 50.68537 -36.1319
vt 51.12357 -36.21428
vt 100 -36.25
vt -100.0488 4
vt -100.0488 1
vt -51.17228 1
vt -51.17228 4
vt -21.5 1
vt 0.2499943 0.9999886
vt 19.5 0
vt -21.5 0
vt 0.250021 63.74998
vt -21.49997 63.75
vt 21.5 1.000014
vt -0.2499943 1.000002
vt 21.49997 63.75002
vt -0.250021 63.75001
vt 18.00001 63.74999
vt 17.99999 0.9999925
vt 2.649031E-08 0.9999887
vt 1.147059E-05 63.74998
vt -17.99999 0.9999947
vt -18.00001 63.74999
vt -18 14.47705
vt -18 6.522945
vt -33.99999 14.47705
vt -33.99999 6.522945
vt -18 50.94672
vt -18 42.99999
vt -33.99999 50.94672
vt -33.99999 42.99999
vt 18 43
vt 18 50.94673
vt 33.99999 43
vt 33.99999 50.94673
vt 18 6.522941
vt 18 14.47705
vt 33.99999 6.522941
vt 33.99999 14.47705
vt 18.00002 -0.2499876
vt 2.519948E-05 -0.2499857
vt 18.00002 21.50001
vt 18.00002 6.500035
vt 18.00002 14.25004
vt 6.522941 50.94674
vt 14.47705 50.94674
vt 6.5 63.75
vt 14.25 63.75
vt 14.47705 43
vt -0.2500229 63.75
vt -0.2499962 0.9999956
vt 6.522945 43
vt 49.50001 -0.2499763
vt 34.00001 -0.2499782
vt 34.00001 21.50002
vt 49.50001 21.50002
vt 34.00001 63.75
vt 49.50001 63.75
vt 49.5 0.9999963
vt 33.99999 1
vt -33.99999 1.000002
vt -49.5 0.9999985
vt -49.50001 63.75
vt -34.00001 63.75001
vt 33.99999 -0.2499957
vt 17.99999 -0.2499957
vt 17.99999 21.5
vt 33.99999 21.5
vt -14.47705 50.94674
vt -14.47705 43
vt -6.522941 50.94674
vt 0.2500227 63.75
vt 0.249996 1.000006
vt -6.522945 43
vt 79.0209 1
vt 100 0
vt 27.125 1
vt 42.375 1
vt 69.9791 1
vt 0 0
vt 0 1
vt 16 1
vt 22 1
vt 36 1
vt 22 -50
vt 36 -50
vt 36 -69.9791
vt 22 -69.9791
vt 36 -100
vt 22 -100
vt 22 -79.0209
vt 36 -79.0209
vt 16 -100
vt 0 -79.0209
vt 16 -79
vt 0 -69.9791
vt 0 -50
vt 16 -50
vt 16 -69.9791
vt 44.75 -100
vt 44.75 -63.74999
vt 44.73244 -63.5
vt 44.67003 -62.98805
vt 44.52088 -62.77088
vt 44.26195 -62.57997
vt 43.98817 -62.5
vt 43.7331 -62.50001
vt 43.25 -62.5
vt 43 -62.52405
vt 42.75 -62.57177
vt 42.59257 -62.64899
vt 42.47295 -62.77741
vt 42.32996 -62.98805
vt 42.24999 -63.24676
vt 42.25 -63.5
vt 42.25 -100
vt 21.5 0
vt -17.99999 1.000004
vt -55.5 1.000008
vt -49.5 1.000008
vt 55.5 21.5
vt 55.5 -0.25
vt 3.443792E-08 -42.375
vt 3.443792E-08 -27.125
vt 55.5 -19.5
vt 100 -19.5
vt 100 21.5
vt 55.5 -0.25
vt -36 1
vt -22 1
vt -36 0
vt -22 0
vt -79.0209 1
vt -79.0209 0
vt 79.0209 0
vt 22 0
vt 36 0
vt -69.9791 1
vt -69.9791 0
vt -50 0
vt 50 0
vt 69.9791 0
vt -16 1
vt -16 0
vt 16 0
vt 79 1
vt 79 0
vt -0.1032057 1
vt 15.89681 1
vt -0.1032057 0
vt 15.89681 0

vn 0 -1 0
vn 0 1 0
vn 0 0 -1
vn -1 0 0
vn 0 0 1
vn 0.1847488 0 -0.9827858
vn 0.9831412 0 0.1828479
vn 0.1803837 0 0.9835963
vn 0.7931901 0 0.6089742
vn 0.6001772 0 0.799867
vn 0.9832458 0 -0.1822844
vn 0.3844251 0 -0.9231562
vn 1 0 0
vn 0.872428 0 -0.4887426
vn -0.9975435 0 0.07005058
vn -0.8243215 0 0.5661219
vn -0.5934401 0 0.8048782
vn 0.09571935 0 0.9954084
vn 0.9553944 2.422535E-06 0.2953329
vn 0.8273877 0.0004796357 0.5616311
vn 0.8258546 0.000240866 0.5638765
vn 0.8243215 2.096358E-06 0.5661219
vn 0.03647437 0.997856 0.02831943
vn -0.002649632 0.9982761 0.004338363
vn -0.01436342 0.999278 -0.005810216
vn -0.006559666 0.9956901 0.01092689
vn 0.731789 1.638262E-05 0.6815313
vn 0.7318537 1.111138E-05 0.6814618
vn 0.4404044 -0.0005241764 0.8977994
vn 0.4362663 -0.0002618135 0.8998058
vn 0.4321281 5.494794E-07 0.9018123
vn 0.1875019 2.38421E-07 0.9822642
vn -0.9926497 0 0.1210227
vn -0.2803867 0 0.9598871
vn 0.0007309173 0 -0.9999998
vn -0.001448097 0 0.999999
vn 0.6 -3.705061E-06 1.249923E-05
vn 0.3333333 -7.050684E-06 2.083205E-05
vn 0.0003090967 0.3333336 0.0002688134
vn 0.0004543446 3.576279E-07 0.0004083691
vn 0.0001528705 0.6666668 0.0001373441
vn -0.001306056 0 -0.9999992

usemtl ProBuilder
f 16/23/4 4/20/4 14/19/4
f 16/23/4 15/22/4 4/20/4
f 15/22/4 11/13/4 4/20/4
f 4/20/4 11/13/4 2/21/4
f 11/13/4 9/14/4 2/21/4
f 50/128/2 52/129/2 57/130/2
f 57/130/2 55/124/2 50/128/2
f 49/127/2 50/128/2 55/124/2
f 55/124/2 60/125/2 49/127/2
f 59/126/2 49/127/2 60/125/2
f 68/104/23 72/106/24 71/105/2
f 72/106/24 66/108/2 73/107/2
f 49/127/2 48/109/2 50/128/2
f 63/112/25 44/111/2 45/110/2
f 63/112/25 45/110/2 50/128/2
f 50/128/2 48/109/2 63/112/25
f 63/112/25 48/109/2 66/108/2
f 72/106/24 63/112/25 66/108/2
f 72/106/24 65/113/26 63/112/25
f 72/106/24 68/104/23 65/113/26
f 29/152/2 30/153/2 33/154/2
f 29/152/2 33/154/2 27/155/2
f 21/162/2 18/163/2 19/151/2
f 29/152/2 21/162/2 19/151/2
f 27/155/2 21/162/2 29/152/2
f 27/155/2 23/161/2 21/162/2
f 23/161/2 41/159/2 39/160/2
f 36/158/2 41/159/2 35/157/2
f 41/159/2 24/156/2 35/157/2
f 41/159/2 23/161/2 24/156/2
f 23/161/2 27/155/2 24/156/2
f 79/17/2 97/204/2 87/202/2
f 78/201/2 84/200/2 96/203/2
f 78/201/2 96/203/2 97/204/2
f 79/17/2 78/201/2 97/204/2
f 94/205/4 92/206/4 96/207/4
f 92/206/4 97/208/4 96/207/4
f 89/212/4 84/210/4 85/211/4
f 94/205/4 84/210/4 89/212/4
f 96/207/4 84/210/4 94/205/4
f 86/174/4 88/209/4 85/211/4
f 88/209/4 89/212/4 85/211/4
f 87/176/4 88/209/4 86/174/4
f 92/206/4 88/209/4 87/176/4
f 97/208/4 92/206/4 87/176/4
f 93/229/13 95/231/13 99/173/37
f 95/231/13 98/232/13 99/173/37
f 95/231/13 100/233/37 98/232/13
f 99/173/37 90/230/38 93/229/13
f 99/173/37 100/233/37 90/230/38
f 100/233/37 91/234/13 90/230/38
f 101/168/13 100/233/37 99/173/37
f 91/234/13 100/233/37 95/231/13
f 1/236/13 103/9/13 102/235/13
f 102/235/13 107/239/13 1/236/13
f 1/236/13 107/239/13 3/170/13
f 3/170/13 107/239/13 106/10/13
f 3/170/13 106/10/13 105/238/13
f 3/170/13 105/238/13 104/237/13
f 77/169/13 3/170/13 104/237/13
f 2/236/3 9/9/3 10/10/3
f 2/236/3 10/10/3 1/240/3
f 1/240/3 10/10/3 43/67/3
f 1/240/3 43/67/3 42/66/3
f 1/240/3 42/66/3 110/244/3
f 1/240/3 110/244/3 109/243/3
f 1/240/3 109/243/3 108/242/3
f 103/241/3 1/240/3 108/242/3
f 43/260/2 10/7/2 51/261/2
f 51/261/2 10/7/2 17/8/2
f 53/262/2 51/261/2 17/8/2
f 56/263/2 53/262/2 17/8/2
f 54/264/2 56/263/2 17/8/2
f 61/265/2 54/264/2 17/8/2
f 58/266/2 61/265/2 17/8/2
f 46/267/2 58/266/2 17/8/2
f 47/268/2 46/267/2 17/8/2
f 42/276/2 62/275/2 110/249/2
f 110/249/2 62/275/2 126/252/2
f 62/275/2 127/247/41 126/252/2
f 64/274/2 127/247/41 62/275/2
f 69/273/2 127/247/41 64/274/2
f 70/272/40 127/247/41 69/273/2
f 74/271/39 127/247/41 70/272/40
f 128/246/2 127/247/41 74/271/39
f 128/246/2 74/271/39 75/270/2
f 128/246/2 75/270/2 67/269/2
f 128/246/2 67/269/2 47/268/2
f 47/268/2 17/8/2 128/246/2
f 117/251/2 116/250/2 115/249/2
f 117/251/2 115/249/2 118/252/2
f 111/245/2 114/248/2 113/247/2
f 111/245/2 113/247/2 112/246/2
f 123/257/2 122/256/2 125/259/2
f 123/257/2 125/259/2 124/258/2
f 120/254/2 1/1/2 119/253/2
f 120/254/2 119/253/2 121/255/2
f 76/241/5 86/278/5 12/240/5
f 86/278/5 101/221/5 12/240/5
f 12/240/5 101/221/5 80/280/5
f 12/240/5 80/280/5 130/279/5
f 12/240/5 130/279/5 13/21/5
f 130/279/5 129/14/5 13/21/5
f 15/163/2 20/162/2 11/5/2
f 20/162/2 17/8/2 11/5/2
f 22/161/2 17/8/2 20/162/2
f 38/160/2 17/8/2 22/161/2
f 38/160/2 128/246/2 17/8/2
f 38/160/2 40/159/2 128/246/2
f 40/159/2 37/158/2 128/246/2
f 34/157/2 128/246/2 37/158/2
f 25/156/2 128/246/2 34/157/2
f 25/156/2 26/155/2 128/246/2
f 26/155/2 132/245/2 128/246/2
f 131/282/2 81/213/2 134/285/2
f 134/285/2 81/213/2 100/225/2
f 16/151/2 14/286/2 28/152/2
f 14/286/2 134/285/2 28/152/2
f 134/285/2 31/153/2 28/152/2
f 31/153/2 134/285/2 32/154/2
f 134/285/2 100/225/2 32/154/2
f 100/225/2 26/155/2 32/154/2
f 132/245/2 26/155/2 100/225/2
f 100/225/2 85/226/2 132/245/2
f 105/283/2 106/257/2 133/258/2
f 104/284/2 105/283/2 133/258/2
f 132/245/2 104/284/2 133/258/2
f 85/226/2 104/284/2 132/245/2
f 77/201/2 104/284/2 85/226/2
f 131/288/2 134/285/2 14/286/2
f 14/286/2 130/281/2 131/288/2
f 14/286/2 129/287/2 130/281/2
f 107/256/2 102/254/2 138/255/2
f 107/256/2 138/255/2 137/259/2
f 108/253/2 109/250/2 136/251/2
f 138/255/2 108/253/2 136/251/2
f 138/255/2 136/251/2 135/248/2
f 137/259/2 138/255/2 135/248/2
f 133/258/2 137/259/2 135/248/2
f 133/258/2 135/248/2 132/245/2
f 135/248/2 136/251/2 126/252/2
f 135/248/2 126/252/2 127/247/2
f 4/4/1 2/2/1 1/1/1
f 1/1/1 3/3/1 4/4/1
f 8/8/2 7/7/2 6/6/2
f 6/6/2 5/5/2 8/8/2
f 7/12/3 10/10/3 9/9/3
f 9/9/3 6/11/3 7/12/3
f 6/16/4 9/14/4 11/13/4
f 11/13/4 5/15/4 6/16/4
f 13/18/1 4/4/1 3/3/1
f 3/3/1 12/17/1 13/18/1
f 5/16/5 11/14/5 17/13/5
f 17/13/5 8/15/5 5/16/5
f 18/24/4 15/22/4 16/23/4
f 16/23/4 19/25/4 18/24/4
f 22/28/6 20/26/6 21/27/6
f 21/27/6 23/29/6 22/28/6
f 26/32/7 25/31/7 24/30/7
f 24/30/7 27/33/7 26/32/7
f 28/34/8 31/37/8 30/36/8
f 30/36/8 29/35/8 28/34/8
f 33/40/9 32/39/9 26/38/9
f 26/38/9 27/41/9 33/40/9
f 30/44/10 31/43/10 32/42/10
f 32/42/10 33/45/10 30/44/10
f 37/49/11 36/48/11 35/47/11
f 35/47/11 34/46/11 37/49/11
f 38/50/12 22/53/12 23/52/12
f 23/52/12 39/51/12 38/50/12
f 34/56/13 35/57/13 24/54/13
f 24/54/13 25/55/13 34/56/13
f 40/60/14 41/61/14 36/58/14
f 36/58/14 37/59/14 40/60/14
f 38/62/14 39/63/14 41/64/14
f 41/64/14 40/65/14 38/62/14
f 10/9/13 7/11/13 8/12/13
f 8/12/13 17/10/13 10/9/13
f 44/68/3 42/66/3 43/67/3
f 43/67/3 45/69/3 44/68/3
f 49/73/5 46/70/5 47/71/5
f 47/71/5 48/72/5 49/73/5
f 52/76/15 50/74/15 51/75/15
f 51/75/15 53/77/15 52/76/15
f 56/80/16 54/78/16 55/79/16
f 55/79/16 57/81/16 56/80/16
f 58/84/5 46/82/5 49/83/5
f 49/83/5 59/85/5 58/84/5
f 64/90/13 62/88/13 63/89/13
f 63/89/13 65/91/13 64/90/13
f 66/94/18 48/92/18 47/93/18
f 47/93/18 67/95/18 66/94/18
f 64/96/19 65/97/19 68/98/19
f 68/98/19 69/99/19 64/96/19
f 69/103/21 68/102/22 71/101/21
f 71/101/21 70/100/20 69/103/21
f 66/122/32 67/121/32 75/120/32
f 75/120/32 73/123/32 66/122/32
f 73/119/31 75/118/30 74/117/29
f 74/117/29 72/115/30 73/119/31
f 72/115/28 74/117/27 70/116/27
f 70/116/27 71/114/27 72/115/28
f 52/131/33 53/132/33 56/133/33
f 56/133/33 57/134/33 52/131/33
f 60/139/34 61/140/34 58/137/34
f 58/137/34 59/138/34 60/139/34
f 60/86/17 55/135/17 54/136/17
f 54/136/17 61/87/17 60/86/17
f 45/141/4 43/14/4 51/142/4
f 51/142/4 50/143/4 45/141/4
f 44/144/13 63/145/13 62/146/13
f 62/146/13 42/9/13 44/144/13
f 18/148/35 21/149/35 20/150/35
f 20/150/35 15/147/35 18/148/35
f 19/164/36 16/165/36 28/166/36
f 28/166/36 29/167/36 19/164/36
f 3/170/13 77/169/13 76/168/13
f 76/168/13 12/171/13 3/170/13
f 79/173/13 76/168/13 77/169/13
f 77/169/13 78/172/13 79/173/13
f 83/177/4 81/175/4 80/174/4
f 80/174/4 82/176/4 83/177/4
f 85/179/3 84/178/3 78/181/3
f 78/181/3 77/180/3 85/179/3
f 79/181/5 87/183/5 86/182/5
f 86/182/5 76/180/5 79/181/5
f 91/187/1 89/185/1 88/184/1
f 88/184/1 90/186/1 91/187/1
f 90/191/5 88/189/5 92/188/5
f 92/188/5 93/190/5 90/191/5
f 95/195/3 94/193/3 89/192/3
f 89/192/3 91/194/3 95/195/3
f 93/199/2 92/197/2 94/196/2
f 94/196/2 95/198/2 93/199/2
f 99/215/2 98/214/2 83/213/2
f 83/213/2 82/216/2 99/215/2
f 81/219/3 83/218/3 98/217/3
f 98/217/3 100/220/3 81/219/3
f 82/223/5 80/222/5 101/221/5
f 101/221/5 99/224/5 82/223/5
f 86/227/2 85/226/2 100/225/2
f 100/225/2 101/228/2 86/227/2
f 4/20/4 13/277/4 129/174/4
f 129/174/4 14/19/4 4/20/4
f 81/213/2 131/282/2 130/281/2
f 130/281/2 80/216/2 81/213/2
f 116/292/5 109/290/5 110/289/5
f 110/289/5 115/291/5 116/292/5
f 117/294/4 136/293/4 109/14/4
f 109/14/4 116/21/4 117/294/4
f 115/236/13 110/9/13 126/235/13
f 126/235/13 118/295/13 115/236/13
f 118/297/3 126/244/3 136/243/3
f 136/243/3 117/296/3 118/297/3
f 114/292/5 135/290/5 127/289/5
f 127/289/5 113/291/5 114/292/5
f 111/300/4 132/13/4 135/298/4
f 135/298/4 114/299/4 111/300/4
f 113/302/13 127/239/13 128/10/13
f 128/10/13 112/301/13 113/302/13
f 112/297/3 128/244/3 132/243/3
f 132/243/3 111/296/3 112/297/3
f 122/240/5 107/241/5 137/303/5
f 137/303/5 125/304/5 122/240/5
f 123/300/4 106/13/4 107/298/4
f 107/298/4 122/299/4 123/300/4
f 125/302/13 137/239/13 133/10/13
f 133/10/13 124/301/13 125/302/13
f 124/305/3 133/242/3 106/241/3
f 106/241/3 123/240/3 124/305/3
f 1/240/5 103/241/5 108/303/5
f 108/303/5 119/304/5 1/240/5
f 120/294/4 102/293/4 103/14/4
f 103/14/4 1/21/4 120/294/4
f 119/236/13 108/9/13 138/306/13
f 138/306/13 121/307/13 119/236/13
f 121/311/42 138/309/42 102/308/42
f 102/308/42 120/310/42 121/311/42

